<svg width="512" height="512" viewBox="0 0 512 512" fill="none" xmlns="http://www.w3.org/2000/svg">
<path d="M500.6 212.6L440.7 197.9C437.4 187.4 433.2 177.2 428.1 167.3L458.7 116.3C462.3 110.3 461.4 102.8 456.6 98L414 55.4C409.2 50.6 401.7 49.7 395.7 53.3L344.7 83.9C334.8 78.8 324.6 74.6 314.1 71.3L299.7 11.4C297.9 4.8 291.9 0 285 0H225C218.1 0 212.1 4.8 210.3 11.4L195.9 71.3C185.4 74.6 175.2 78.8 165.3 83.9L114.3 53.3C108.3 49.7 100.8 50.6 96 55.4L53.4 98C48.6 102.8 47.7 110.3 51.3 116.3L81.9 167.3C76.8 177.2 72.6 187.4 69.3 197.9L11.4 212.6C4.8 214.1 0 220.1 0 227V287C0 293.9 4.8 299.9 11.4 301.4L69.3 316.1C72.6 326.6 76.8 336.8 81.9 346.7L51.3 397.7C47.7 403.7 48.6 411.2 53.4 416L96 458.6C100.8 463.4 108.3 464.3 114.3 460.7L165.3 430.1C175.2 435.2 185.4 439.4 195.9 442.7L210.3 500.6C212.1 507.2 218.1 512 225 512H285C291.9 512 297.9 507.2 299.7 500.6L314.1 442.7C324.6 439.4 334.8 435.2 344.7 430.1L395.7 460.7C401.7 464.3 409.2 463.4 414 458.6L456.6 416C461.4 411.2 462.3 403.7 458.7 397.7L428.1 346.7C433.2 336.8 437.4 326.6 440.7 316.1L500.6 301.4C507.2 299.9 512 293.9 512 287V227C512 220.1 507.2 214.1 500.6 212.6ZM255 332C213.6 332 180 298.4 180 257C180 215.6 213.6 182 255 182C296.4 182 330 215.6 330 257C330 298.4 296.4 332 255 332Z" fill="white"/>
</svg>
