<?xml version="1.0" encoding="UTF-8" standalone="no"?>
<svg
   xmlns:dc="http://purl.org/dc/elements/1.1/"
   xmlns:cc="http://creativecommons.org/ns#"
   xmlns:rdf="http://www.w3.org/1999/02/22-rdf-syntax-ns#"
   xmlns:svg="http://www.w3.org/2000/svg"
   xmlns="http://www.w3.org/2000/svg"
   xmlns:sodipodi="http://sodipodi.sourceforge.net/DTD/sodipodi-0.dtd"
   xmlns:inkscape="http://www.inkscape.org/namespaces/inkscape"
   inkscape:version="1.0 (4035a4fb49, 2020-05-01)"
   sodipodi:docname="search.svg"
   viewBox="0 0 546.1333 546.1333"
   height="546.1333"
   width="546.1333"
   id="svg2"
   version="1.1">
  <metadata
     id="metadata8">
    <rdf:RDF>
      <cc:Work
         rdf:about="">
        <dc:format>image/svg+xml</dc:format>
        <dc:type
           rdf:resource="http://purl.org/dc/dcmitype/StillImage" />
        <dc:title></dc:title>
      </cc:Work>
    </rdf:RDF>
  </metadata>
  <defs
     id="defs6" />
  <sodipodi:namedview
     inkscape:current-layer="g10"
     inkscape:window-maximized="1"
     inkscape:window-y="-8"
     inkscape:window-x="-8"
     inkscape:cy="325.39168"
     inkscape:cx="804.75257"
     inkscape:zoom="0.29647829"
     showgrid="false"
     id="namedview4"
     inkscape:window-height="837"
     inkscape:window-width="1600"
     inkscape:pageshadow="2"
     inkscape:pageopacity="0"
     guidetolerance="10"
     gridtolerance="10"
     objecttolerance="10"
     borderopacity="1"
     bordercolor="#666666"
     pagecolor="#ffffff" />
  <g
     id="g10"
     inkscape:label="Image"
     inkscape:groupmode="layer">
    <g
       transform="translate(126.22251,68.981888)"
       id="g904">
      <g
         id="g845">
	<g
   id="g843">
		<path
   style="fill:#330066;fill-opacity:1"
   d="m 43.80478,245.97027 c -49.1099999,-49.111 -49.1089999,-129.021 0,-178.132004 49.111003,-49.111 129.02001,-49.111 178.13001,0 41.664,41.664004 47.974,103.629004 18.947,152.017004 0,0 -2.085,3.498 0.731,6.312 16.065,16.064 64.263,64.263 64.263,64.263 12.791,12.79 15.836,30.675 4.493,42.02 l -1.953,1.951 c -11.343,11.345 -29.229,8.301 -42.019,-4.49 0,0 -48.096,-48.097 -64.128,-64.128 -2.951,-2.951 -6.448,-0.866 -6.448,-0.866 -48.38701,29.026 -110.352007,22.717 -152.01601,-18.947 z m 154.87601,-23.255 c 36.288,-36.288 36.287,-95.332 -0.001,-131.620004 -36.28801,-36.287 -95.33201,-36.288 -131.619007,0 -36.288003,36.287004 -36.288003,95.332004 0,131.620004 36.287997,36.286 95.330997,36.286 131.620007,0 z"
   id="path837" />

		<g
   id="g841">
			<path
   style="fill:#330066;fill-opacity:1"
   d="m 190.64179,149.42927 c 1.689,0 3.406,-0.332 5.061,-1.031 6.611,-2.798 9.704,-10.426 6.906,-17.038 -17.586,-41.559004 -65.70301,-61.062004 -107.261007,-43.476004 -6.611,2.798 -9.704,10.426 -6.906,17.038004 2.799,6.612 10.425,9.703 17.038997,6.906 28.354,-11.998004 61.18601,1.309 73.18301,29.663 2.099,4.959 6.913,7.938 11.978,7.938 z"
   id="path839" />

		</g>

	</g>

</g>
      <g
         id="g847">
</g>
      <g
         id="g849">
</g>
      <g
         id="g851">
</g>
      <g
         id="g853">
</g>
      <g
         id="g855">
</g>
      <g
         id="g857">
</g>
      <g
         id="g859">
</g>
      <g
         id="g861">
</g>
      <g
         id="g863">
</g>
      <g
         id="g865">
</g>
      <g
         id="g867">
</g>
      <g
         id="g869">
</g>
      <g
         id="g871">
</g>
      <g
         id="g873">
</g>
      <g
         id="g875">
</g>
    </g>
  </g>
</svg>
