<svg width="547" height="547" viewBox="0 0 547 547" fill="none" xmlns="http://www.w3.org/2000/svg">
<path d="M170.027 314.952C120.917 265.841 120.918 185.931 170.027 136.82C219.138 87.7092 299.047 87.7092 348.157 136.82C389.821 178.484 396.131 240.449 367.104 288.837C367.104 288.837 365.019 292.335 367.835 295.149C383.9 311.213 432.098 359.412 432.098 359.412C444.889 372.202 447.934 390.087 436.591 401.432L434.638 403.383C423.295 414.728 405.409 411.684 392.619 398.893C392.619 398.893 344.523 350.796 328.491 334.765C325.54 331.814 322.043 333.899 322.043 333.899C273.656 362.925 211.691 356.616 170.027 314.952V314.952ZM324.903 291.697C361.191 255.409 361.19 196.365 324.902 160.077C288.614 123.79 229.57 123.789 193.283 160.077C156.995 196.364 156.995 255.409 193.283 291.697C229.571 327.983 288.614 327.983 324.903 291.697V291.697Z" fill="white"/>
<path d="M316.864 218.411C318.553 218.411 320.27 218.079 321.925 217.38C328.536 214.582 331.629 206.954 328.831 200.342C311.245 158.783 263.128 139.28 221.57 156.866C214.959 159.664 211.866 167.292 214.664 173.904C217.463 180.516 225.089 183.607 231.703 180.81C260.057 168.812 292.889 182.119 304.886 210.473C306.985 215.432 311.799 218.411 316.864 218.411V218.411Z" fill="white"/>
</svg>
